<svg width="15" height="16" viewBox="0 0 15 16" fill="none" xmlns="http://www.w3.org/2000/svg"
    class="ant-menu-item-icon">
    <path fill-rule="evenodd" clip-rule="evenodd"
        d="M5.90775 10.0811L5.99708 10.0811L6.19505 10.0816C7.87651 10.0906 11.8155 10.2435 11.8155 12.8418C11.8155 15.2509 8.58045 15.5728 6.06405 15.585L5.62045 15.5848C3.93899 15.5758 0 15.423 0 12.8253C0 10.3653 3.37125 10.0811 5.90775 10.0811ZM5.90775 11.2061C2.7345 11.2061 1.125 11.7513 1.125 12.8253C1.125 13.9098 2.7345 14.4603 5.90775 14.4603C9.081 14.4603 10.6905 13.9151 10.6905 12.8418C10.6905 11.7558 9.081 11.2061 5.90775 11.2061ZM12.9031 5.1781C13.2136 5.1781 13.4656 5.4301 13.4656 5.7406L13.4655 6.68132L14.4375 6.68192C14.748 6.68192 15 6.93393 15 7.24442C15 7.55492 14.748 7.80692 14.4375 7.80692L13.4655 7.80632L13.4656 8.74885C13.4656 9.05935 13.2136 9.31135 12.9031 9.31135C12.5926 9.31135 12.3406 9.05935 12.3406 8.74885L12.3405 7.80632L11.37 7.80692C11.0595 7.80692 10.8075 7.55492 10.8075 7.24442C10.8075 6.93393 11.0595 6.68192 11.37 6.68192L12.3405 6.68132L12.3406 5.7406C12.3406 5.4301 12.5926 5.1781 12.9031 5.1781ZM5.90775 0.739075C8.1075 0.739075 9.89625 2.52857 9.89625 4.72757C9.89625 6.92657 8.1075 8.71607 5.90775 8.71607H5.8845C4.82025 8.71232 3.82275 8.29457 3.075 7.54157C2.3265 6.78782 1.91625 5.78732 1.91997 4.72532C1.91997 2.52857 3.70875 0.739075 5.90775 0.739075ZM5.90775 1.86407C4.32975 1.86407 3.04498 3.14882 3.04498 4.72757C3.042 5.49182 3.336 6.20807 3.87225 6.74882C4.40925 7.28882 5.12475 7.58807 5.88675 7.59107L5.90775 8.14682V7.59107C7.4865 7.59107 8.77125 6.30632 8.77125 4.72757C8.77125 3.14882 7.4865 1.86407 5.90775 1.86407Z"
        fill="black"></path>
</svg>