<?xml version="1.0" encoding="utf-8"?>
<!-- Generator: Adobe Illustrator 27.1.1, SVG Export Plug-In . SVG Version: 6.00 Build 0)  -->
<svg version="1.1" id="Layer_1" xmlns="http://www.w3.org/2000/svg" xmlns:xlink="http://www.w3.org/1999/xlink" x="0px" y="0px"
	 viewBox="0 0 32 32" style="enable-background:new 0 0 32 32;" xml:space="preserve">
<style type="text/css">
	.st0{fill:#1061FE;}
</style>
<path class="st0" d="M16,29.5C8.4,29.5,2.2,23.4,2.2,16C2.2,8.6,8.4,2.5,16,2.5c7.6,0,13.8,6.1,13.8,13.5
	C29.8,23.4,23.6,29.5,16,29.5z M16,0.4C7.2,0.4,0,7.4,0,16s7.2,15.6,16,15.6c8.8,0,16-7,16-15.6S24.8,0.4,16,0.4z"/>
<path class="st0" d="M18.3,15.7c-2,0-3-2.2-5.4-2.2c-2.8,0-3.9,2-4.2,4.2l3.4,0.7c0-1,0.7-1.7,1.7-1.7c2,0,3,2.2,5.4,2.2
	c2.8,0,3.9-2,4.2-4.2L20,13.9C20,15.1,19.4,15.7,18.3,15.7z"/>
<path class="st0" d="M18.3,9.3c-2,0-3-2.2-5.4-2.2c-2.8,0-3.9,2-4.2,4.2L12,12c0-1,0.7-1.7,1.7-1.7c2,0,3,2.2,5.4,2.2
	c2.8,0,3.9-2,4.2-4.2L20,7.6C20,8.7,19.4,9.3,18.3,9.3z"/>
<path class="st0" d="M18.3,21.8c-2,0-3-2.2-5.4-2.2c-2.8,0-3.9,2-4.2,4.2l3.4,0.7c0-1,0.7-1.7,1.7-1.7c2,0,3,2.2,5.4,2.2
	c2.8,0,3.9-2,4.2-4.2L20,20C20,21.2,19.4,21.8,18.3,21.8z"/>
</svg>
