<svg width="15" height="16" viewBox="0 0 15 16" fill="none" xmlns="http://www.w3.org/2000/svg"
    class="ant-menu-item-icon">
    <path fill-rule="evenodd" clip-rule="evenodd"
        d="M8.57341 10.457C9.45439 10.457 10.1715 11.169 10.1715 12.0441V14.2948C10.1715 14.4829 10.3222 14.6336 10.5154 14.638H11.91C13.009 14.638 13.9024 13.7556 13.9024 12.6712V6.28774C13.8973 5.91457 13.7195 5.56335 13.4144 5.32994L8.59024 1.48262C7.94268 0.969695 7.03683 0.969695 6.38707 1.48409L1.59585 5.32848C1.27902 5.56921 1.10122 5.92043 1.09756 6.30018V12.6712C1.09756 13.7556 1.99098 14.638 3.09 14.638H4.4978C4.6961 14.638 4.85707 14.4807 4.85707 14.2875C4.85707 14.2451 4.8622 14.2026 4.87098 14.1624V12.0441C4.87098 11.1741 5.58366 10.4629 6.45805 10.457H8.57341ZM11.91 15.7355H10.5022C9.69585 15.7165 9.0739 15.0836 9.0739 14.2948V12.0441C9.0739 11.7741 8.84927 11.5546 8.57341 11.5546H6.46171C6.19171 11.556 5.96854 11.7763 5.96854 12.0441V14.2875C5.96854 14.3424 5.96122 14.3951 5.94585 14.4448C5.86683 15.1692 5.2478 15.7355 4.4978 15.7355H3.09C1.38585 15.7355 0 14.3607 0 12.6712V6.29506C0.00731707 5.56774 0.342439 4.90189 0.92122 4.4636L5.70293 0.625793C6.75585 -0.208354 8.22293 -0.208354 9.27366 0.624329L14.0898 4.46579C14.6554 4.89677 14.9905 5.56116 15 6.2797V12.6712C15 14.3607 13.6141 15.7355 11.91 15.7355Z"
        fill="black"></path>
</svg>