<svg width="165" height="29" viewBox="0 0 165 29" fill="none" xmlns="http://www.w3.org/2000/svg"
    style="margin-bottom: 60px;">
    <path
        d="M43.9362 7.1779L50.4041 22.034L47.4545 28.8293H51.3642L60.8118 7.1779H56.8419L52.3905 17.5636L47.909 7.1779H43.9392H43.9362ZM63.4603 5.08839C64.5138 5.08839 65.3565 4.26436 65.3565 3.23432C65.3565 2.20428 64.5138 1.38025 63.4603 1.38025C62.4069 1.38025 61.5642 2.20428 61.5642 3.23432C61.5642 4.26436 62.4069 5.08839 63.4603 5.08839ZM65.3264 7.1779H61.6274V22.0634H65.3264V7.1779ZM82.3555 14.7972C82.3555 10.5329 79.4361 6.8836 74.7439 6.8836C70.0517 6.8836 67.1322 10.3857 67.1322 14.5324C67.1322 18.885 70.2925 22.3577 74.9846 22.3577C79.1953 22.3577 81.573 19.503 82.0244 17.4753L78.7739 17.1222C78.172 18.1522 76.938 19.1528 75.0147 19.1528C72.3361 19.1528 70.9245 17.5636 70.8312 15.739H82.3525V14.7972H82.3555ZM74.7439 10.0914C77.0614 10.0914 78.5331 11.5923 78.6535 13.2404H70.8312C70.9215 11.5335 72.4866 10.0914 74.7439 10.0914ZM87.2885 0H83.5895V22.0634H87.2885V0ZM88.9438 14.6207C88.9438 18.885 91.9235 22.3577 96.2846 22.3577C98.9031 22.3577 101.157 21.004 101.94 19.094L102.151 22.0664H105.672V0H101.94V10.1503C101.157 8.23737 98.9 6.8836 96.2846 6.8836C91.9235 6.8836 88.9438 10.3563 88.9438 14.6207ZM92.6458 14.6207C92.6458 12.2663 94.5118 10.2974 97.1273 10.2974C99.7428 10.2974 101.549 12.2692 101.549 14.6207C101.549 16.9721 99.7127 18.9439 97.1273 18.9439C94.5419 18.9439 92.6458 16.9721 92.6458 14.6207ZM114.939 4.29379C115.631 4.29379 116.444 4.64695 116.685 4.79409V1.76578C116.143 1.38319 115.029 0.88289 113.675 0.88289C111.568 0.88289 109.103 2.03065 109.103 6.20672V7.1779H107.448V10.5917H109.103V22.0634H112.805V10.5917H116.594V7.1779H112.805V6.70702C112.805 5.23554 113.226 4.29379 114.942 4.29379M121.888 0H118.189V22.0634H121.888V0ZM131.727 22.3577C136.48 22.3577 139.851 18.885 139.851 14.6207C139.851 10.3563 136.48 6.8836 131.727 6.8836C126.975 6.8836 123.544 10.3563 123.544 14.6207C123.544 18.885 126.945 22.3577 131.727 22.3577ZM131.727 18.9439C129.109 18.9439 127.243 16.9721 127.243 14.6207C127.243 12.2692 129.109 10.2974 131.727 10.2974C134.346 10.2974 136.149 12.2692 136.149 14.6207C136.149 16.9721 134.313 18.9439 131.727 18.9439ZM161.06 7.1779L157.539 17.5636L154.048 7.1779H150.108L146.616 17.5636L143.125 7.1779H139.185L144.69 22.0634H148.543L152.094 12.5017L155.616 22.0634H159.495L165 7.1779H161.057H161.06Z"
        fill="#1061FE"></path>
    <path
        d="M14.7537 27.0136C7.73804 27.0136 2.03157 21.4337 2.03157 14.5736C2.03157 7.71359 7.73804 2.13372 14.7537 2.13372C21.7695 2.13372 27.4759 7.71359 27.4759 14.5736C27.4759 21.4337 21.7695 27.0136 14.7537 27.0136ZM14.7537 0.147217C6.61842 0.147217 0 6.6188 0 14.5736C0 22.5285 6.61842 29.0001 14.7537 29.0001C22.8891 29.0001 29.5075 22.5285 29.5075 14.5736C29.5075 6.6188 22.8891 0.147217 14.7537 0.147217Z"
        fill="#1061FE"></path>
    <path
        d="M16.8395 14.2558C15.0366 14.2558 14.1066 12.2576 11.8253 12.2576C9.24289 12.2576 8.19249 14.0793 7.98181 16.104L11.0758 16.7191C11.0758 15.7803 11.6778 15.1328 12.668 15.1328C14.4708 15.1328 15.4008 17.1311 17.6822 17.1311C20.2646 17.1311 21.315 15.3094 21.5256 13.2847L18.4617 12.6696C18.4617 13.7261 17.8598 14.2558 16.8395 14.2558Z"
        fill="#1061FE"></path>
    <path
        d="M16.8395 8.38451C15.0366 8.38451 14.1066 6.38623 11.8253 6.38623C9.24289 6.38623 8.19249 8.20793 7.98181 10.2327L11.0758 10.8507C11.0758 9.9119 11.6778 9.26445 12.668 9.26445C14.4708 9.26445 15.4008 11.2627 17.6822 11.2627C20.2646 11.2627 21.315 9.44103 21.5256 7.41627L18.4617 6.79825C18.4617 7.85477 17.8598 8.38451 16.8395 8.38451Z"
        fill="#1061FE"></path>
    <path
        d="M16.8395 19.8828C15.0366 19.8828 14.1066 17.8845 11.8253 17.8845C9.24289 17.8845 8.19249 19.7062 7.98181 21.731L11.0758 22.349C11.0758 21.4102 11.6778 20.7627 12.668 20.7627C14.4708 20.7627 15.4008 22.761 17.6822 22.761C20.2646 22.761 21.315 20.9393 21.5256 18.9146L18.4617 18.2965C18.4617 19.3531 17.8598 19.8828 16.8395 19.8828Z"
        fill="#1061FE"></path>
</svg>