<svg width="15" height="16" viewBox="0 0 15 16" fill="none" xmlns="http://www.w3.org/2000/svg"
    class="ant-menu-item-icon">
    <path fill-rule="evenodd" clip-rule="evenodd"
        d="M3.26923 9.09698C6.39923 9.09698 6.53846 10.1585 6.53846 12.3662C6.53846 13.4724 6.53846 14.2593 6.07385 14.8354C5.53923 15.4993 4.56615 15.6354 3.26923 15.6354C1.97231 15.6354 0.999231 15.4993 0.464615 14.8354C0 14.2593 0 13.4731 0 12.3854L0.576923 12.3662H0C0 10.1585 0.139231 9.09698 3.26923 9.09698ZM11.7308 9.09698C14.8608 9.09698 15 10.1585 15 12.3662C15 13.4724 15 14.2593 14.5354 14.8354C14.0008 15.4993 13.0277 15.6354 11.7308 15.6354C10.4338 15.6354 9.46077 15.4993 8.92615 14.8354C8.46154 14.2593 8.46154 13.4731 8.46154 12.3854L9.03846 12.3662H8.46154C8.46154 10.1585 8.60077 9.09698 11.7308 9.09698ZM3.42782 10.2512L3.26923 10.2508C1.26233 10.2508 1.15941 10.3948 1.15413 12.0793L1.15445 12.7356C1.1581 13.4055 1.18363 13.8895 1.36231 14.1124C1.56615 14.3647 2.17154 14.4816 3.26923 14.4816C4.36692 14.4816 4.97231 14.3639 5.17615 14.1116C5.38462 13.8524 5.38462 13.237 5.38462 12.3847C5.38462 10.4614 5.38462 10.2602 3.42782 10.2512ZM11.8894 10.2512L11.7308 10.2508C9.72387 10.2508 9.62095 10.3948 9.61567 12.0793L9.61599 12.7356C9.61964 13.4055 9.64516 13.8895 9.82385 14.1124C10.0277 14.3647 10.6331 14.4816 11.7308 14.4816C12.8285 14.4816 13.4338 14.3639 13.6377 14.1116C13.8462 13.8524 13.8462 13.237 13.8462 12.3847C13.8462 10.4614 13.8462 10.2602 11.8894 10.2512ZM3.26923 0.635437C6.39923 0.635437 6.53846 1.69698 6.53846 3.90467C6.53846 5.01082 6.53846 5.79774 6.07385 6.3739C5.53923 7.03774 4.56615 7.1739 3.26923 7.1739C1.97231 7.1739 0.999231 7.03774 0.464615 6.3739C0 5.79774 0 5.01159 0 3.9239L0.576923 3.90467H0C0 1.69698 0.139231 0.635437 3.26923 0.635437ZM11.7308 0.635437C14.8608 0.635437 15 1.69698 15 3.90467C15 5.01082 15 5.79774 14.5354 6.3739C14.0008 7.03774 13.0277 7.1739 11.7308 7.1739C10.4338 7.1739 9.46077 7.03774 8.92615 6.3739C8.46154 5.79774 8.46154 5.01159 8.46154 3.9239L9.03846 3.90467H8.46154C8.46154 1.69698 8.60077 0.635437 11.7308 0.635437ZM3.42782 1.78963L3.26923 1.78928C1.26233 1.78928 1.15941 1.93329 1.15413 3.61778L1.15445 4.27404C1.1581 4.94401 1.18363 5.42796 1.36231 5.65082C1.56615 5.90313 2.17154 6.02005 3.26923 6.02005C4.36692 6.02005 4.97231 5.90236 5.17615 5.65005C5.38462 5.39082 5.38462 4.77544 5.38462 3.92313C5.38462 1.99989 5.38462 1.79868 3.42782 1.78963ZM11.8894 1.78963L11.7308 1.78928C9.72387 1.78928 9.62095 1.93329 9.61567 3.61778L9.61599 4.27404C9.61964 4.94401 9.64516 5.42796 9.82385 5.65082C10.0277 5.90313 10.6331 6.02005 11.7308 6.02005C12.8285 6.02005 13.4338 5.90236 13.6377 5.65005C13.8462 5.39082 13.8462 4.77544 13.8462 3.92313C13.8462 1.99989 13.8462 1.79868 11.8894 1.78963Z"
        fill="black"></path>
</svg>