<svg width="15" height="15" viewBox="0 0 15 15" fill="none" xmlns="http://www.w3.org/2000/svg"
    class="ant-menu-item-icon">
    <path fill-rule="evenodd" clip-rule="evenodd"
        d="M10.6415 0.704102C13.045 0.704102 15 2.65914 15 5.06332V10.2794C15 12.6829 13.045 14.6386 10.6415 14.6386H4.35922C1.95576 14.6386 0 12.6829 0 10.2794V5.06332C0 2.65914 1.95576 0.704102 4.35922 0.704102H10.6415ZM10.6415 1.79427H4.35922C2.55681 1.79427 1.09017 3.26091 1.09017 5.06332V10.2794C1.09017 12.0818 2.55681 13.5485 4.35922 13.5485H10.6415C12.4439 13.5485 13.9098 12.0818 13.9098 10.2794V10.0759L11.513 10.0764C10.1343 10.0764 9.01214 8.95494 9.01141 7.57696C9.01141 6.19754 10.1336 5.07539 11.513 5.07466L13.9098 5.07423V5.06332C13.9098 3.26091 12.4439 1.79427 10.6415 1.79427ZM13.9098 6.1644L11.513 6.16483C10.7346 6.16556 10.1016 6.79858 10.1016 7.57624C10.1016 8.35316 10.7353 8.98619 11.513 8.98619L13.9098 8.98575V6.1644ZM11.8456 6.98609C12.1464 6.98609 12.3906 7.23029 12.3906 7.53118C12.3906 7.83206 12.1464 8.07626 11.8456 8.07626H11.6188C11.3179 8.07626 11.0737 7.83206 11.0737 7.53118C11.0737 7.23029 11.3179 6.98609 11.6188 6.98609H11.8456ZM7.76564 4.0023C8.06652 4.0023 8.31072 4.2465 8.31072 4.54738C8.31072 4.84827 8.06652 5.09247 7.76564 5.09247H3.84176C3.54087 5.09247 3.29667 4.84827 3.29667 4.54738C3.29667 4.2465 3.54087 4.0023 3.84176 4.0023H7.76564Z"
        fill="white"></path>
</svg>